<svg xmlns="http://www.w3.org/2000/svg" viewBox="0 0 128 128"><defs><style>.Graphic-Style-6{fill:#d6e1ea;}.Graphic-Style-5{fill:#fff;}.cls-1{fill:none;stroke:#2a457f;stroke-linecap:round;stroke-linejoin:round;stroke-width:4px;}.Graphic-Style-3{fill:#a6caff;}</style></defs><title>brainstorm</title><g id="circles"><circle class="Graphic-Style-6" cx="64" cy="64" r="54"/></g><g id="icons"><path class="Graphic-Style-5" d="M51.23,72.54c-4.87.71-9.39-2.59-9.39-2.59-5.09,5.06-16.98-.73-13.92-8.82-5.1-3.03-9.52-12.41-1.37-20.5-7.13-11.12,6.2-24.53,15.37-21.5,10.19-14.16,20.94-10.1,24-1,10.19-15.17,21.98-4.1,23,5,11.21-1.01,15.1,6.38,14.09,18.51,8.15,8.09-1.84,18.52-15.09,15.49-3.01,9.71-13.01,11.08-18.04,11.12Z"/><path class="cls-1" d="M102.4,31.6a29.522,29.522,0,0,1,.61,10.04c8.15,8.09-1.84,18.52-15.09,15.49a14.562,14.562,0,0,1-2.94,5.35"/><path class="cls-1" d="M77.6,67.1a27.061,27.061,0,0,1-7.72,1.15"/><path class="cls-1" d="M51.23,72.54c-4.87.71-9.39-2.59-9.39-2.59-5.09,5.06-16.98-.73-13.92-8.82a12.775,12.775,0,0,1-5.65-8.36"/><path class="cls-1" d="M24.52,43.02a18.045,18.045,0,0,1,2.03-2.39c-7.13-11.12,6.2-24.53,15.37-21.5,10.19-14.16,20.94-10.1,24-1,10.19-15.17,21.98-4.1,23,5a14.139,14.139,0,0,1,8.5,1.45"/><path class="cls-1" d="M41.922,19.13s15,3,18,17"/><path class="cls-1" d="M27.922,61.13c6-16,16-5,24-15"/><path class="cls-1" d="M69.922,44.13c7-3,15,3,18,13"/><path class="cls-1" d="M82.3,47.37a31.237,31.237,0,0,1,4.62-12.24"/><path class="cls-1" d="M39.412,51.36c-3.81-4.62-2.49-11.23-2.49-11.23"/><path class="cls-1" d="M59.922,22.13a9.629,9.629,0,0,0-6,3.38"/><polygon class="Graphic-Style-3" points="54.922 62.13 43.922 93.13 61.922 93.13 53.922 118.13 83.922 83.13 64.922 83.13 71.922 62.13 54.922 62.13"/><polyline class="cls-1" points="46.1 87 43.92 93.13 61.92 93.13 53.92 118.13 66.03 104"/><polyline class="cls-1" points="74.6 94 83.92 83.13 64.92 83.13 69.88 68.25 71.92 62.13 54.92 62.13 51.23 72.54 49.64 77"/></g></svg>